<?xml version="1.0" encoding="UTF-8"?>
<svg id="Layer_1" xmlns="http://www.w3.org/2000/svg" version="1.1" viewBox="0 0 612 792">
  <!-- Generator: Adobe Illustrator 29.3.1, SVG Export Plug-In . SVG Version: 2.1.0 Build 151)  -->
  <defs>
    <style>
      .st0, .st1 {
        stroke: #eaa4c8;
        stroke-width: .75px;
      }

      .st0, .st1, .st2 {
        fill: none;
        stroke-linejoin: bevel;
      }

      .st1 {
        opacity: .74;
      }

      .st3 {
        fill: #fef4f8;
      }

      .st2 {
        stroke: #e3e3e3;
        stroke-width: .5px;
      }
    </style>
  </defs>
  <rect class="st3" x="-.13" y="-.17" width="612.69" height="794.08"/>
  <line class="st2" x1="568.94" y1="73.72" x2="568.94" y2="107.73"/>
  <line class="st2" x1="568.94" y1="149.98" x2="568.94" y2="184"/>
  <line class="st2" x1="568.94" y1="226.25" x2="568.94" y2="260.26"/>
  <line class="st2" x1="568.94" y1="302.51" x2="568.94" y2="336.52"/>
  <line class="st2" x1="568.94" y1="378.78" x2="568.94" y2="412.79"/>
  <line class="st2" x1="568.94" y1="455.04" x2="568.94" y2="489.05"/>
  <line class="st2" x1="568.94" y1="531.31" x2="568.94" y2="565.32"/>
  <line class="st2" x1="568.94" y1="607.57" x2="568.94" y2="641.58"/>
  <line class="st2" x1="568.94" y1="683.84" x2="568.94" y2="717.85"/>
  <line class="st1" x1="61.11" y1="107.73" x2="569.47" y2="107.73"/>
  <line class="st1" x1="61.11" y1="99.23" x2="569.47" y2="99.23"/>
  <line class="st1" x1="61.11" y1="90.72" x2="569.47" y2="90.72"/>
  <line class="st1" x1="61.11" y1="82.22" x2="569.47" y2="82.22"/>
  <line class="st1" x1="61.11" y1="73.72" x2="569.47" y2="73.72"/>
  <line class="st0" x1="61.11" y1="184" x2="569.47" y2="184"/>
  <line class="st0" x1="61.11" y1="175.49" x2="569.47" y2="175.49"/>
  <line class="st0" x1="61.11" y1="166.99" x2="569.47" y2="166.99"/>
  <line class="st0" x1="61.11" y1="158.48" x2="569.47" y2="158.48"/>
  <line class="st0" x1="61.11" y1="149.98" x2="569.47" y2="149.98"/>
  <line class="st0" x1="61.11" y1="260.26" x2="569.47" y2="260.26"/>
  <line class="st0" x1="61.11" y1="251.76" x2="569.47" y2="251.76"/>
  <line class="st0" x1="61.11" y1="243.25" x2="569.47" y2="243.25"/>
  <line class="st0" x1="61.11" y1="234.75" x2="569.47" y2="234.75"/>
  <line class="st0" x1="61.11" y1="226.25" x2="569.47" y2="226.25"/>
  <line class="st0" x1="61.11" y1="336.52" x2="569.47" y2="336.52"/>
  <line class="st0" x1="61.11" y1="328.02" x2="569.47" y2="328.02"/>
  <line class="st0" x1="61.11" y1="319.52" x2="569.47" y2="319.52"/>
  <line class="st0" x1="61.11" y1="311.01" x2="569.47" y2="311.01"/>
  <line class="st0" x1="61.11" y1="302.51" x2="569.47" y2="302.51"/>
  <line class="st0" x1="61.11" y1="412.79" x2="569.47" y2="412.79"/>
  <line class="st0" x1="61.11" y1="404.29" x2="569.47" y2="404.29"/>
  <line class="st0" x1="61.11" y1="395.78" x2="569.47" y2="395.78"/>
  <line class="st0" x1="61.11" y1="387.28" x2="569.47" y2="387.28"/>
  <line class="st0" x1="61.11" y1="378.78" x2="569.47" y2="378.78"/>
  <line class="st0" x1="61.11" y1="489.05" x2="569.47" y2="489.05"/>
  <line class="st0" x1="61.11" y1="480.55" x2="569.47" y2="480.55"/>
  <line class="st0" x1="61.11" y1="472.05" x2="569.47" y2="472.05"/>
  <line class="st0" x1="61.11" y1="463.54" x2="569.47" y2="463.54"/>
  <line class="st0" x1="61.11" y1="455.04" x2="569.47" y2="455.04"/>
  <line class="st0" x1="61.11" y1="565.32" x2="569.47" y2="565.32"/>
  <line class="st0" x1="61.11" y1="556.82" x2="569.47" y2="556.82"/>
  <line class="st0" x1="61.11" y1="548.31" x2="569.47" y2="548.31"/>
  <line class="st0" x1="61.11" y1="539.81" x2="569.47" y2="539.81"/>
  <line class="st0" x1="61.11" y1="531.31" x2="569.47" y2="531.31"/>
  <line class="st0" x1="61.11" y1="641.58" x2="569.47" y2="641.58"/>
  <line class="st0" x1="61.11" y1="633.08" x2="569.47" y2="633.08"/>
  <line class="st0" x1="61.11" y1="624.58" x2="569.47" y2="624.58"/>
  <line class="st0" x1="61.11" y1="616.07" x2="569.47" y2="616.07"/>
  <line class="st0" x1="61.11" y1="607.57" x2="569.47" y2="607.57"/>
  <line class="st0" x1="61.11" y1="717.85" x2="569.47" y2="717.85"/>
  <line class="st0" x1="61.11" y1="709.35" x2="569.47" y2="709.35"/>
  <line class="st0" x1="61.11" y1="700.84" x2="569.47" y2="700.84"/>
  <line class="st0" x1="61.11" y1="692.34" x2="569.47" y2="692.34"/>
  <line class="st0" x1="61.11" y1="683.84" x2="569.47" y2="683.84"/>
</svg>